<svg width="350" height="280" viewBox="0 0 350 280" fill="none" xmlns="http://www.w3.org/2000/svg">
<path d="M0 231.248H350V280L344.461 273.827C341.404 270.421 336.721 270.421 333.664 273.827L333.523 273.984C330.467 277.39 325.783 277.39 322.727 273.984L322.586 273.827C319.529 270.421 314.846 270.421 311.789 273.827L311.648 273.984C308.592 277.39 303.908 277.39 300.852 273.984L300.711 273.827C297.654 270.421 292.971 270.421 289.914 273.827L289.773 273.984C286.717 277.39 282.033 277.39 278.977 273.984L278.836 273.827C275.779 270.421 271.096 270.421 268.039 273.827L267.898 273.984C264.842 277.39 260.158 277.39 257.102 273.984L256.961 273.827C253.904 270.421 249.221 270.421 246.164 273.827L246.023 273.984C242.967 277.39 238.283 277.39 235.227 273.984L235.086 273.827C232.029 270.421 227.346 270.421 224.289 273.827L224.148 273.984C221.092 277.39 216.408 277.39 213.352 273.984L213.211 273.827C210.154 270.421 205.471 270.421 202.414 273.827L202.273 273.984C199.217 277.39 194.533 277.39 191.477 273.984L191.336 273.827C188.279 270.421 183.596 270.421 180.539 273.827L180.398 273.984C177.342 277.39 172.658 277.39 169.602 273.984L169.461 273.827C166.404 270.421 161.721 270.421 158.664 273.827L158.523 273.984C155.467 277.39 150.783 277.39 147.727 273.984L147.586 273.827C144.529 270.421 139.846 270.421 136.789 273.827L136.648 273.984C133.592 277.39 128.908 277.39 125.852 273.984L125.711 273.827C122.654 270.421 117.971 270.421 114.914 273.827L114.773 273.984C111.717 277.39 107.033 277.39 103.977 273.984L103.836 273.827C100.779 270.421 96.0957 270.421 93.0393 273.827L92.8982 273.984C89.8418 277.39 85.1582 277.39 82.1018 273.984L81.9607 273.827C78.9043 270.421 74.2207 270.421 71.1643 273.827L71.0232 273.984C67.9668 277.39 63.2832 277.39 60.2268 273.984L60.0857 273.827C57.0293 270.421 52.3457 270.421 49.2893 273.827L49.1482 273.984C46.0918 277.39 41.4082 277.39 38.3518 273.984L38.2107 273.827C35.1543 270.421 30.4707 270.421 27.4143 273.827L27.2732 273.984C24.2168 277.39 19.5332 277.39 16.4768 273.984L16.3357 273.827C13.2793 270.421 8.59568 270.421 5.53935 273.827L0 280V231.248Z" fill="#D9D9D9"/>
<path d="M0 231.248H350V225.154L339.062 226.678L328.125 225.154L317.188 226.678L306.25 225.154L295.312 226.678L284.375 225.154L273.438 226.678L262.5 225.154L251.562 226.678L240.625 225.154L229.688 226.678L218.75 225.154L207.812 226.678L196.875 225.154L185.938 226.678L175 225.154L164.062 226.678L153.125 225.154L142.188 226.678L131.25 225.154L120.312 226.678L109.375 225.154L98.4375 226.678L87.5 225.154L76.5625 226.678L65.625 225.154L54.6875 226.678L43.75 225.154L32.8125 226.678L21.875 225.154L10.9375 226.678L0 225.154V231.248Z" fill="#D9D9D9"/>
<path d="M0 221.306H350V226.117L339.062 224.914L328.125 226.117L317.188 224.914L306.25 226.117L295.312 224.914L284.375 226.117L273.438 224.914L262.5 226.117L251.562 224.914L240.625 226.117L229.688 224.914L218.75 226.117L207.812 224.914L196.875 226.117L185.938 224.914L175 226.117L164.062 224.914L153.125 226.117L142.188 224.914L131.25 226.117L120.312 224.914L109.375 226.117L98.4375 224.914L87.5 226.117L76.5625 224.914L65.625 226.117L54.6875 224.914L43.75 226.117L32.8125 224.914L21.875 226.117L10.9375 224.914L0 226.117V221.306Z" fill="#D9D9D9"/>
<path d="M0 0H350V221.306H0V0Z" fill="#D9D9D9"/>
</svg>
